<mxfile host="Electron" modified="2024-02-15T08:44:01.802Z" agent="Mozilla/5.0 (Windows NT 10.0; Win64; x64) AppleWebKit/537.36 (KHTML, like Gecko) draw.io/21.2.8 Chrome/112.0.5615.165 Electron/24.2.0 Safari/537.36" etag="_POpOt_D_634Zrv06uGz" version="21.2.8" type="device">
  <diagram name="Page-1" id="2XWkQP5S-hDbL94sL5Vg">
    <mxGraphModel dx="2058" dy="1180" grid="1" gridSize="10" guides="1" tooltips="1" connect="1" arrows="1" fold="1" page="1" pageScale="1" pageWidth="3300" pageHeight="4681" background="#999999" math="0" shadow="0">
      <root>
        <mxCell id="0" />
        <mxCell id="1" parent="0" />
        <mxCell id="APLwThIm-aDqV8bCMrbt-1" value="Switch" style="rounded=0;whiteSpace=wrap;html=1;fontSize=25;fillColor=#dae8fc;strokeColor=#6c8ebf;" parent="1" vertex="1">
          <mxGeometry x="1323" y="140" width="657" height="60" as="geometry" />
        </mxCell>
        <mxCell id="uGVmFyeouiLrDwrDRcRs-1" value="" style="shape=image;verticalLabelPosition=bottom;labelBackgroundColor=default;verticalAlign=top;aspect=fixed;imageAspect=0;image=data:image/png,iVBORw0KGgoAAAANSUhEUgAAAowAAAD1CAYAAADagaT2AAAAAXNSR0IArs4c6QAAAARnQU1BAACxjwv8YQUAAAAJcEhZcwAADsMAAA7DAcdvqGQAADY6SURBVHhe7d0HnBxnfTfw37brRaduS7KuqdmyLcmWZEtWt2VjwH7hpQUMJIHYIfCSkPImeSEQ+CQkBLCdBBIgiROM7RfwG0KMKS4qxrJsyUXVlqx26v2k0/W73dt95//MM3e7e7tzW2fb7yvNTp95ZnZ29nfT1jX/+htC0EKh4cYRRrfRXY1uMQalFKS4Irn6KXe49dlz6ToRZUNOPmGu4vpcm4szepnMzjG6G91UYMxaUEwjVfIrKR/l4F0poA2B2yxR/iqor/ucFLag1lBJSOsdSSLgxgqPZqeobtfNv37099yosBgjKMYMlIUuB0uU4iyLb92XugJ6R7nxZU/i+3hKGlduvsnJO5LyTItr+1FLEx0IzY6qWUQPExkYY4TAUUcfkwqKaXyzpDFqqnIwyxwojRVbGu8lEeWzyK9jhzg+05wsZUFJeQ2ltWoTG1kNlWBwHAmMUUHQPijqJqMWNVSBS3Fp0lgJxbX+siEHa6hE3hRue5QrkV9PeS4nhS2oNeS4tNZOyiMXz3uilmTkRTFbI5cxPDjKqxkYo8Lg6KxoddB1oxY1SByJDRVTiqOmMccccXZBC2/9lIoCeme4EeWfyP08xcSVZCcnayflmRbWe5l/i2lOWL2OvChyc0u4iNB47XXzw3b/UWEx+qii+V+Lbs8XaZQoxVHzbx3YcX79pKOw1m0ucA1RKYn8MqPRUl5Dzo9YUKJyVJLybx1FHz0Me9GNZrOwhg0LjJFhMfqo4khreIgUkW0RbHqNJY1RUxe+ApKQk7LmRIpLWiIrqHS2AyJKxMhXroNSnmlOSuu43Kye1EbO3ixHeqomHQ7DQ6SI7qcDY1hYjAiEqpdujwyUo9tjGXOA+FIcNY05pqFUlrNUFNDaLbANgdttdozs4otcTha0ZNau41Jes2m9Jc6/n/m4nKqvDoPCCou6Zr1EDOead+11I/vwqLAYHiK9Ph+qq6tQ5itDWXkZPB5PVvf+4SWhGApq9ThfWG49RJRr5tes03Iz15QUUFFzQce37DAmPTQ0hIGBAQwO+tHb24uA3290N+dpBcjhV6PDSGC0CYu1tbWoH1eP9su96OsPoH8wAL9/SA9QjGT1JBo5zBVKRJZCius2ZY310Q4fPOGPfqbXh9PrN/X5WasokSlErs7CWcbsii6XrKV8LWsmlcIy5p7P60VFuc+oyjBxfD06Oq6gq7PT2MzMT2N0aDQDY5ywKNcxTpw40ejixZkLnUYKLeaQmCpzZRJRuFg7/PDPSr58IcQpR7yP9ViLNUq2ltPJ9efMvCJXo5PLJ5yeX7oKrbypKIVlzB9lPi+mThoPr8eF8+cv6K7G51J9MM1Ppzt2WJR6CHW1tUaTF8dOXWZYjEtWWHRFVOpkB2NFgPBmS3R7nohVVEu8j3bcj3w29wVOrj9n5jWytnKxD83T7TGuQitvKkphGfPHoD+A46fPIzBknlU2b3weyYTCrV6FBEfdQ+pyqFJOQ8uRRQonG7FVxWOuXCJKdqc/1mcr0/S84s1WPspWJeIVbdRH3ol9gJPrKZtGVrL5L1eKZX0Wk3gfTMqWsxcuYVx9vcqA4ZlQ6m7zwznyITV7ANU11eqaxdI4spjqRskNmSh10Z+f8PY8/WxZO0oqUoW0T+f3D2WeHGm8ePkKqqqrVLuVCaVuHmFUHSRFjvSRu6H7BgJme8mQD6BVJSqVcYgoP1j7vJHGYdHtdnLy8U+mgPksfB9qVZSYUllX3Cac1D8wqDKglRat09Mj1zBa+x7dLo/O6S+ZwGgtfLh4O65Yw1qscbhxEyUml5+ZGJ9l6WRVicrJxz2ZAhaiXO5DcznvVBRaeVNVKsuZe/0DfpSXl5t7GR0apcU1Z+48dYLa7KQaVb1xZiPePHhOdY2nrrYSPu/IZZCJ8geG0NnVr9ucEL2h6RUQIZGNMXw8brxEJvlcxPs8RH/WEv3cxPqMZlKGph93cbJZ/myvm1icnae5WnOxnOFyPf9kFVp5M6mUlz07rm2diaPHjhpNruE7pY3AODfsTLTZIPXGxpl46+B51R7PQ9/4ClpaW3RbbNYPWZ86e3E4qPZ0tuMP//iLcLs9Zoesi7dXD9/I4u75o8g4iQ5LVArsPhPhnzHLWJ+fWONkWobmEXdRsrkMTqyfaM7O01ytuVjOWPKlHIkopLJmUqkud/bMa70GR48eGwmLRoN7eD2HhcVEjauvxXVzZ9lW185pVdUdq27B+tVmNWniBGM+QT0VJ8gyhVcWWRNWlahkhiUqBYl+JpL9rBWAxHeXGVTc+yDuYSl5iW81X/nSF3Ds4Js4eWR/zEr6yTD55qWNv8KypUt022jSb8uGX+q2TLHOOhtNRoNrzpy5ZrvxquKU7pvIEcZHH/l7TJ/egp++eBAutzExqTxSBXH3ja2YOqUe3d09atjq6mr850ttqrmpthf3ffxT8Hh8qj2WT/zmh4037X/rNmBa0wLdZM8a770f+G1se/UN3TWWkQ3sZz95FLv2vIkvfOlrugsVL+t9z8k3fQmy1nMyMcCJ9yYL8xhexAItvy1n5jd6K3F6OWPJhzIkqpDKmg1jL78Ewjvuvhdnz8XON+MbxuGF53+JmbOu013ygwTCf3z46/hff/An2Lptu+5qsuuXKvMIo3VK2vxkRj1WR69sCY1jr3eZjDEhD9qudONoVxeO9XbixMAVnPR3wO8PGpMxKv3P4ikb+zE9Sxcvwuc++4AKiVJJ+PurL/+Z7mvv3/7jCTWOFRZPte1U9dRJ2RNYGVQAkgkt8cg0MjGdeLI9fcoa7ipGSWZrjjUcVyklZ+wtzuPxqLDY2dkZszp67LgaJt9IEJRAKMEw/EhjNsKiMvzhM170gcTk71gJMxQ0TytPmlAOV1kAVwKduNDfjnN95s/KuKI+6RUN/aia2Kvb4pt/3Vy0HT2m26DC3xe+9Le6LRcS3eVR6SjlbSLqg51R2Zy2Ewq9/LEU4zIVK35XFbPo0Ji1sBhHWoHR2o3sO3cSbR1n0BG4jD50YdDVrbqH9LYrRyJF9bhuVNWY/ezIUcJFC2/Av//Lw7qLSdrDu+194wV1ClpIfcump9TRSekurKOLUpfTzkKGk/ZTbTtUFc7qtmXTf+sugh/A4pHJL75sfYnKdPP9C5qfibiKbtWkty0mujXHW23SnVtbsrjGinkdhIdGJ8OiSCswWm9JnxEQfZV++Cr88JYPwmdUirGnsMKimDtpBlrHNes2e3JaeVZrswp3Vij8zvceVd2E1e225eahWalv/vVW1WyxrnuU+rvf+zE1jlzfKO1mtVD1F7/1sQ+pdqnkZ3E+8Zu/ofsQRbP7CpTtnTvs0dILHgXB0be9OLax6E9L5FaSL9tMIa5rZ8p88si+hKrcKI7PSD5JKzBaVFA0Kl+5VGGB0Xi/wj/yrQ0tqkrUbWvuUcFOQp5cwyinpiXMyVFECYgP/cN3sfgmM/RJfazT1jLOs89v1m2R/v3RH+qmkDod3tR0jW6n4pPMF5HsdMIru3Glv8UankqCeqvzJeBkirPLY80tP9diIX6Ws1/m6c3zEqpyp/j2w+GnocNPTzvBDIzqExoyr2vUd0snwwyLZlAsk3qZGRjNO66tqYUw6Pejry/5B3Z/8ct/h9Url6nmV1/fgXe/a70KiHLquuPKFXXkUOqZUXwbWOHJ5vpPduuOlmzZuC1Rocrutjv21PPtsyPlKbTPc6GVl+xEX7MYfU1jpqlvS+PF+tZM7wijsS0ODPRh6cQW3NwwC4vqZmNB9TzcUHmd6m4OYm6wkh2DweDwjTJ25GiidcpZyJHBy5c7VPOWl7ar8GjdFCOnoX/r4x/CwUNHVHu0y5evqCOSQsZdf/tq1Uz5LN1Ql0lSFquyWF8c4Tvj8OZw+bQsuRBrXeVaFt4TNUknl7Hwt6vwJYhemvxdukJc7/n02XOavF+R79nQ0JB6dE48U6dOUcPkm3g3uGQ7NIZLKzBK9ps3ZwYeWHM7Hli1Hr+z4h345Ip78Inl92LunOmoqqrG5MmTMH7CePjKfCowut1jb7xyalkeq2PenLJTXbco1yAKOarY1HgNdu15S7X/7OlnVbtc3xiLBMuf/PgRddOLjCunnq3pRt/0QpQ8uzCUiS+XUt7ZZ0MWv/AdyxKOzSjrZEnsl4bbf2aU4nqMvWV9/7H/q56zGOuh3VJte3GjGiafyHMQ/+6rXx4VFi1WaPz633xFd8kO1+w5c9W5aPVPfXrNU9JNjY1465D9g7v/4LOfxMIFN+i20dxut6okrYf/gszuXXvx9Qf/CW6PV3fJJe6QKFHJbCv2X4MjrGnGGj58folOrxhka1mdWIfGPLK6S8nFdpC5edpt7dEiV2MuljuWfClHqgq9/ImKt5zJbIH5RUJjMr/El655Ldeg7ehRc40Z85b5pxUY1YO5g+bDuZMhp6ldRpB0uTJyz02UZDeIyN0S5YK8B859EFKX6LaSzLKETzN6PLt+xSqby+nUOtTzycquJVfbQWbma62SRKYWufrMMeQ1K6s1Ybla/9lUjMskYi1XMltgaYsVGI3EpuOefjFXo7yOvUIl8MlRQvmJv2QqGSc7YVEkVnbKJ9b7JZumVeWjRLar6GESXZZY05ZuVlUKSmU505Gvn43EpLM1W+NxK6HERH9WCvuz4zSVBvUBRPWpM5qzldoKCHc/2SUf0kQ+qJn6MCc6v1TZbS/R/axyWGWKVS4Zh9tg9tdBMa3jbG7f+WPkk5HsOaxsKo11Xzys94vvWyYUSWBMZmOQYa3KUkxfJvkieh0nK5Vx05mfxSq33bSsr7Lw7SZ6G4o3fiLTLzX8/CWvVLaffAqLFn52Cwvfr0zhEUbKE4UaGtIpN4Nj8YXFsOUptkWjIsVARYkpksCYyp6Ze/PskvUbXiUifLhEx7FkeqeX7PyjJTM+gyPlO26fkYptfZTa+8vtORVu83tNH/bX33Fyt3QyX3eFRZaseJeu8CX7/sgHP9Mf/lxtH9lYlnxWbJ9D7lfSVWqfgPxSamueW9pYrD2alQlL4JS0tQvixpGaXK87u/lnolzW9K0q21/6iUw/E8tFzpH3NNvbTWkpjE+Atc8oJqW27ynG9zB7SuwaRm4Yycmn9eVEWVL90k92PIaL4mKzbRbVW53dz2DsqefTPqhUlOI653aWiCIIjPJGJ/NmW8NzAxlbPn/bjfX+Jfv+ZmNZGQxLh832lpXNoJS2LWt/HV5RdnEd02iu2bPnqEczyjlq6yGN8vMzTU2NeP6559RARERERFQabr/jDrS1HVW/8CLUTwPOksCormi0bnxR8RFNjU14/nkGRiLKncDB0wgePY/gpW4MXbiCkD+g+4wt/LdXw5stagfo9cA1oRbuCXXwNE6Gd/bVui8RUem6/XYjMB5tg/yUs7GzNI/tMzASUT4J7D2O/qe2I7DjMAa3H9RdneG7qQW+m2eh/J03w3djo+5KRFRaGBiJKG8Fdh1F/39vw8DTr2LoXIfumhvuSfUqNFa85xb4FjTprkREpSFWYOQvvRBRzvX/eAs6P/8D9P7bczkPiyJ44Qr6/mMDur/wGPp+9KLuSkRUulyzZs82L+3RRxito41NTTzCSERZFhhCz0NPoee7zwBJXJ+YKldNJXyLmuGeWAf31HFwud0YOn8FwXOX4X/9CELdfXrIMD4vqh+4E9WfuwfwenRHIqLipY4wtrWZRxdHTkkzMBJRDlhh8Vs/1x2yx7dkFiruWQrfza3wzpuuu0YK7DsJ/2uH0P/UNvhjXDtZ/Zl3MjQSUUmIFRh5SpqIcqL3u89kPSx6rh6Pms+/H/X/cD8qP7o6blgU0k+GkWFlHBk3nJRVykxEVIoYGInIcYMbdqPvsc26LTvkZhUJflX33wn3VQ2669hkWBlHxo2+4UXKPLBhl24jIiodDIxE5KhQZy96H92EodOXdJfM87Zeheo/uAfl71qsuyRPxpVpyLQsUua+RzcjaCwDEVEpcavrF9WDdMy6WRERZUf/069hcPMe3ZZ5rqpyVN6/HmVrrtddUifTkGnJNC1S9sFf7dBtRETFaTgX6ntceISRiJwTCBqB8VXdkh0V9yxB5QdX6Lb0ybRkmuH6n96uloWIqFQwMBKRYwZfOwj/S/t0W+a5J9Si/N6lui1zZJoybcvgC29i8PVDui3Tgug+exodft0aV6LDERGlj4GRiBwjj63JJt/iWShbNle3ZY5MU6YdLrDjiG6KI3QcP3xgPd7/4GuIeLpj+y/wh2vX48+eDb+GM4i2xz6BdR/8Fvac+RX+7J678Hs/PIYQTuPJT9+OlStXDle33XoXvrC505hO+HBERNnFwEhEjvG/flg3ZYc8ZzFboqcd61mNEVzTcNOiGhzc/DKOhj2TvHP3Zrx+7ixef3k/enQ34CJ2vfgm3NcvQctVd+FrTz+Lf/6NmerZZ4GuTky8+//gGw8+iG9+85t46B/+CvfNqwAmRA5HRJRNZmDUf56qG2Dk+kb9j4gok4JZvDNa+G5q0U2ZFz3toVMXdVM8HjQuX46px17CtlPW/rQX+7buw+Rbb0Dv1i04NKg7X9mDF3e7sXD5XFQZ8a+8fhwqw1Kge+Js3HzzzVi8eLFR3Yy5U8qMrqOHIyLKBDMDqkA4nAZ5hJGIHCO/0ZxNnqsiH7adSe6pkc9yDF7s0k3x+VpXYfmEg9jy+nmzw+AhvPDrLsx7x1q0XHoZLx8fUp37DmzFjqGFWHlDHTDwBv72Hbfji1vGmH6iwxERZQADIxE5Jtie3XCTzAO6kxX9yy/Bi526yUbFXKxZXo8DL+3GZaM10PYiXupdhJVr12BV40m8tP2sdMWx7a+jd/5qLJqgxjL+pJe/6UcOHfqPvognf/Qj/Miofvzkr7BXJiaihiMiyhYGRiJyjHtinW7Kjmw+DDx4xkpppvC7puOrwXW33YDBV3+NfT1BnHxlK65cvxoLGqbjlhVX4chLO3AxdBavv3IOjStuxlQ9VjgXgri453k8/fTTqnrqv7biuHWOiIjIIQyMROQY98REQlbqgmcjQ10mDZ2JDKPuSfW6yV7DotW4sW87thw4iu0vnjKC4SJMhA8ty5agYucL2HXkdWw5OBHLlk6PuUMOGV2veveX8f0f/AA/MKrHnvgK7s7emXciopjU/kn9sWr+5ItuVo1ERBnlmTZRN2VHNu/Cjp62O+oUdVyTlmD1vA5s+8VPsWH/BCxferXqXDF3JRa7X8cvf7IBb9bcguXNPtU9Hp54JiInSSwcjoNGC48wEpFjfEsin2WYadl8zmP0tBO/I3sqblk9E+de2oB9dcuxbIbe7dbMx+pFQex58W1U3roKcyrMzkRE+YiBkYgc413YrJuyw//qQQxu3a/bMkemKdMOl/gzH92YsWwFGg4fQvltK9EyfCBxPBasbMGFtzowd/m1qNFdTSPHE11uDzxxDy/yuCMROcPVOmt2yKAON8qhR6u5qbkJG55/3hyKiCgTAkF0/Pbfq5/Wy5bKD61A7dc+rtsyo+tPv4++H76o24ywuHweGh79nJGAE/2bOwj/wCBC3gqUeXQnMeRHv38IHl8FfMPdQwgMGsN6ylW3oH8AflcZyr3R4TByOCKiTFl3++04cqQNLpfLrIxuPMJIRM4xAlbFu5boluzof2o7+n40Eu7SJdOSaYareNfiJMKicMNXHhUWhceHiorwsChc8JaNhEC3rzxGWBSRwxERZZOxxzMvaRx51b/xYnYgIsqosrsWomz19bot80K9A+j73rMY3LRHd0mdTEOmJdO0SNkr3nWzbiMiKkLDGdBo0GegeYSRiBzlrqtC5cdWj3oQdiYFDp1Bz8NPYeDpV3WX5Mm4Mg2ZlkXKXPWxNXAZy0BEVEoYGInIceXrbkTlfat1W3b4d7ah+6+fRO/3nhn10G07MqyMI+PKNMJJmcvW3aDbiIhKBwMjEeVE1QN3ovoz79Rt2SG//CLB78pnv4e+H2xGYN9J3Wc06SfDyLAyTvSvxkhZpcxERKXI1Tprlr4xWs5Qh1RdGpubmrBhA++SJqIsCgyh56Gn0PPdZwB/QHfMHldNJXw3NcM9pQGeyfUIBYMInu1Qvwvtf+MIQt19esgwPi+qJdx+7h7AyztMiKj4rVt3O460yV3ScnudvBivra1GYFRB0RjCbGJgJCJHqTuRf7AZ/j3HdJf84L1+prpmseIDt+kuRETFL1Zg5ClpIsq5yg+uQM1f3YfK31yX8G80Z5NnyjhUfeIO1P31RxkWiYgMPMJIRHnFv+soBn7+GvyvHczqb0PHUrZkFrwLW1BxzxJ451+juxIRlRaekiaighI4cBpDR88j2N6JUHsXgmle5yi/WGBer21y+bzwTKqHe3wN3I2T4Z11te5DRFS6YgbGFiMwhgdF1WxUzfLTgBs2mGMSERERUUlYt27d8E8DqrBoVLyGkYiIiIhsMTASERERkS0GRiIiIiKyxcBIRERERLZUYFT3DOqXkfsHiYiIiKhUDWfCUIhHGImIiIjIHgMjEREREdliYCQiIiIiWwyMRERERGTLCIzmJY2RN77w5hciIiKiUiQZcCQdmk08wkhEREREthgYiYiIiMgWAyMRERER2WJgJCIiIiJbbvN6xpFLG/W1jSN1IiIiIiodViCU/2aNRxiJiIiIyB4DIxERERHZYmAkIiIiIlsMjERERERky62ua1TMJvU60pGIiIiISlB4RuQRRiIiIiKy5WpuaQ3JPdPqnxElQ+YLmpubsXHjBj0YEVFyzp07h/b2dvT09KCrqwuBQED3GZvL5TL3RVHNFunm8XhQXV2NmpoaTJw4EVOmTNF9iYgoHWvXrsORtiNGk0vtb43/DIxElDmnTp3Czp07cfz4cbS1temuzpg5cyYaGxtxww03YMaMGborERElyz4wqtBoBkapWpqbjMC4UY1IRGTn5MmT2LFjB3bt2oXOzk7VraysDFdNuRpVldWoqqpCma9Mdc8UfyCAvr5edPd04cy50xgcHFTda2trVWhctGgRgyMRUQokMB4+ckSHRaMyujEwElFaXn31Vbz88ssqNHq9PrQ0tWJ2yxxMNcJibU2tHiq7urvN0Hio7SAOHT5ghEk/pk+fjltuuQVLlizRQxERUSIYGIkoY4LBIJ599lm88MILGBoawrVzrsO1c6/HNdNn6iFy48SpY3hz31689fZedZ3jqlWrsH79erjdvMePiCgRsQIj96BElDQrLMoflVWVVVi5bA3Wrboz52FRzJg20yjLelUmKZuUUcoqZSYiotQwMBJR0uSoogQxOeV865LbcPPCJfD5fLpv7klZpExSNimjlFXKTEREqTECo3kqWgmpk9JmMxFRDPv27VPXLEook0A2f94Nuk/+kbJJGaWsUmYpOxERjcXKgkZdZUMeYSSiJPT19WHr1q3o6OjAjfMXjhkW2y9dxFv79+LVN7Zh2+sv4839e1Q3J0kZpaxSZim7LAMRESWHgZGIErZ79268/fbbmH71DBXC4jlx6jie3fRL/Oi/nsCvNvwcL768GS+98ms8s+EXqpv0k2GcImWddtV0Vfa9e/fqrkRElCgGRiJKiNw0Is9ZFK3Ns1FfN041R5OjiBt//Rz2vrUb/f2jj+ZJN+knw8iwTpCyyuN+hCwDb4AhIkoOAyMRJUR+ueXQoUMY3zBeBcZYDhzaj63btiR02lmGkWFlHCfMbpmryn7gwAEcPXpUd01D/zFsfeon2PB2j+6Q54bL2607EBElTgfG8Btfhl+IiIYdO3ZM1a+aMg11tXWqOVx3Tzd27nkDXd3mL70kQoaVcWTcbKurq8eUyVepZvnpwrGdxpOfXoeVK1dixYqVWPuO9+FT3/gl2np1b9dFbHjoG3j2bGb2l/Isy0yLmKZR3o0PfdMor24nIorD3KsZr3r3JjUeYSSihFiBceoUM3RFkyOFJ0+f0G2Jk3GcOsooP1UoEv2d60BXFybe/Xk89PDX8eXfXYXAz/4YH//KRnTo/pnhx55vvR93f34Trugu6cvGNImolDEwElFC5C5jMVUfpYsmP82XqnTGTYYVGC9fvqzqiXBPnIWbblqKFfd+Bl/85I3o2r0LpwK6pyUUwODAAPzhl0YODaJ/cCjyfE1wAB1njuPExV5Yx/5CRreB3n4M+ocQ8A/AGCVMAD3tp3D85Hl0+SOmpMXubzdNOeoYGuzEuZMncaEn80c1iag4MTASUUK6urpUvbq6RtWjnTmbeug761BgrK6qVvWenuSuOzSj2GUc2n8JkxctwnSv6jDiwn/jUys+gu8fGwltF37++1jz/u/goA6R/QefwGduvwUr7/kA/ufaJVj+0X/Czu4z+M/fuwsPPHYQp5/9c6xfshqfevKUGn7g8JP4w7sWY/Hq9+CD71mHJTfdgT948ggGVF+7/vGnKQZ2fhv3rb8L9773nVi5eB0+9/MzkaGWiCgGBkYiSkh3t3mdYU2cwNjZlfrJzyudzpw4rampVXUr/I4thEsbH8RnP/UJfOiu9+Ph3g/j63+6CvW6bwT9e/wWl9EWDOouva/hwU9/E+0feAwvv/oKtm9/Er81+H185dEO3Pud5/AvH52Fq+78Wzz/+hZ874PTjES7HX/3wFdxZM238eLO7cY4b2DTg0vx5lc+h+/t84/RfyLeF2uaBperHVtfq8ef/OwlvLJ9Cx69rwLP/fOT2B99xJSIKIp7ZA8XeeNL+I6PiKi21gxb3d2xw1Z9XcwYlZC62tTHTYZ1c01NTezQO5oLNdPn4fobF2LxrdfC+/KD+P2/+ClOJHkmt3fXU3imZxU+tKoCZw4dwqFTXsy/ZTpOvrITF+CFV45Yutxwuz3wuIzhdz+N57rX4jO/uwwTPDIFH6auewAfvf40Nr7Qhq4x+g/FmKYIhSqx6H0fwIJa6VCL69YswfiLx3GGzzInomg6CFp5kEcYiSgh1dX6dG5v7NO5U/X1gam4amrq4yajRwdGK/wmomz2O3D/734Gf/Slf8STP/k/aHrhYTzyer/um5iec2fR1bUVf//p38H999+P+3/nAfzFzy6jrsyPgRh/ncvwfeNn4GpzlZtc9bh6WhV6L3Xiyhj9/brTaJUYP75SNxsxs6oa5a4grAOhRETxMDASUUIaGhpUPd4NKtYNJalIZ9xknD1/RtXHjYv90PGxuKvHo6G8F5cvRwVGtxfeUC+6+4ZvZUFfZ5cR3MxDexXG/CqqbsPnf7oRGzeOVM//68fQpI/+hascPwFll47jdHg2D3Xh7Jl+1E1uQN0Y/ct0JyKiTGFgJKKENDU1qXq8wDi7da76ycBkyTgyrhPOnjMD48yZM1U9If096OztQsf5t/HLh/8RzwVvwpoFUYGz9ho0NZzCixv2Q87uhrp24P/9dC8GXGYarL3xDix1PY9/fWwPutTRvBD6T2zGr16TO8/dqKj0YfDSZfTKdZBG/5qF78Layg341ndfQbu6acaPcxu/g+/va8W7b29C3Rj93TGmSUSUDgZGIkrINddco+rnzp9BZ4ybVORmmAXXL0JtzeiHescjw8o48W6kyaTOrk4j7Jp3CycaGN3eIN76zkew4pZluG31e/HFbY34o0e+jnunmP1dKhAaaaz8Rnzss+tw6bsfwK1LlmH5O7+GzoVLUOfSSa3hdvzFNz6EwUc+hGWLl2Pliluw7H0PY+eA7II9aFy1HtPe+Eu8Y/EqPPBjo4y1y/Hn3/4cpv7iAaxebMx72a248/P7seabD+G+RmOcsfrHmqawyktElCRXU3OL+vMzJJXRQerS3tzSjE0bN5pDEVHJk99ffuSRR9RP661ctho3L1yq+0SS34d+bcf2MX8ecML4icY0luC6udfrLtn1xq7XsHnLBrS2tuKTn/wk3O6x/14OqmcYmgHL5S1DuTd8nBACgwMIeipQpm48MYbvbcfp9kFUT5qCcV65PtGLcp9Hn5g2DPXg4pmL6PXWY/LkcagIm1xwoAMXLwdRM2k8qvT0EBpE5/lz6BiqxqQp41FpdbeM0T9ymiEMGeUdCiuvsYAY8AO+ch+PHhDRsDVr1+LI4SPqj0z5O9N45T6CiBIjAevGG29UzYfbDuFKZ+zfO5EAuHblHZh/7Q2oqBi5wcIi3aSfDONUWJSyHjpyQDXLMiQSFoXbV26Ut0JVkWFRuOAtCwtfBnfVBEyfcRUajCTo8hrjhodF4anGxOkzcc3UyLAo3OXjMHlqWFgUrjLUTZmBa66OERbFGP0jp+mCJ6q8xgKinGGRiBLAI4xElLC+vj488cQTePvtt9XRwZXL1ug+sclRRrnRRB5n43a51YOzp0yeqo4uOunXWzepo55z5szBhz/8YVRWjg6yRERk4hFGIkqLBK1ly5apu4x37d2Bvft26z6xSTCUo4hLb7oVixctxbVz5zseFqWMUlYps5SdYZGIKHkqMJpX6Ah1jDGsnYgo0rx583DrrbfC7/fj5e1bxgyNuSRlkzJKWaXMUnYiIhpbdBbkEUYiStqqVauwdu1adHV3qUAmp3sllOULKYuUScomZZSySpmJiCg1DIxElDS5aWT9+vUqiPX29aprBDe88CxOnDqmh8id4yePGWV5RpVJyiZllLImeqMLERGNpm56sW50Uf+kbrS28KYXIkrA9u3b8corr+DkyZPweX1obZmN1qZZ6tdbamoS/wm+dMhRxLPnTuPA4bfVHdyBgB/Tp09Xp6EXL16shyIiokTITS+HDx+BPGvWuumFgZGI0nbixAm88cYb2L17N7q6ulS3srIyMzRW16KyssoIk17VPVMG/YPo7e1Fb1+P+vWZwcFB1b2urk49OmfhwoUqNBIRUXLiBMZmlRcjA2MILc0t2LSJgZGIEifBUULj0aNHceyYs6en5acL5ddoFixYgGnTpumuRESULDMwHtaBUcVFBkYiyo5z587h4sWL6O7uRk9PDwKBgO6TGtlpmTsrk9frRW1tLaqrqzFhwgRMmaJ/r4+IiNLCwEhEREREtmIFRt42SERERES2GBiJiIiIyNZwYFRXBo1cHkREREREpcjKg+qSRbPGI4xEREREZIuBkYiIiIhsMTASERERkS0GRiIiIiKy5Q6/0UU16gsciYiIiKhE6SxoRUIeYSQiIiIiWwyMRERERGSLgZGIiIiIbDEwEhEREZEtHRhH7nTh/S5EREREFJ4JeYSRiIiIiGwxMBIRERGRLQZGIiIiIrLFwEhEREREttzqgsbhqxp5ywsRERFRaQvPg9Ic4hFGIiIiIrLHwEhEREREthgYiYiIiMiWq7GpOYSQ8V/+SV2dqg6hpaUZmzZtMociIsoBvz+AoSGpgggGg2oflUkulwtutxsejxter1dVRESlbs2aNTh8+IixkzT3k6piYCSifOL3+9HX14eBgUEMDg7qrs4oKytDeXkZKisr4fP5dFciotLCwEhEeUuCYm9vrxEW+zE0NKS6yU5KgpvH7VFHAqU9k2S/J0cuZX4yf+sIpsfjMUJjBaqqqhgciajkMDASUV7q6ek1qh4V2mTHVF5ejoryCjMsGuHNCUNBIzQO+jEwMID+gX61P5T5V1dXG1WVHoqIqPjFCoy86YWIckZCWWdnJ65cuaLCYmVFJRrGNWBc/ThUVFQ4FhaFHMWUedbX16sySFmkTFI2KaN19JGIqBSpwKh2g+rIotkw3EhElCUSwLq6uoyqW51urq2tRV1dnbqOMNekDFIWKZOUTcooZWVoJKJSYObAsP2d0cgjjESUE93dPSqIyVHEmuoaVFdVq9Me+ULKImWSskkZpaxSZiKiUsTASESO6+/vV9csSiiTQCZ3JecrKZuUUcoqZZayExGVGgZGInKU3JUsN7nInclVlVVjhkW5fvDosaN4++23sX//ftUs3ZwkZZSySpml7LIMRESlRN0lra7LMSqpq39Gq9wlvZl3SRNRhkng6ujoUNcJ1tfVx72x5fz58zh54gROnDiFQX/k8xjLfGWYMWMaps+YgcmTJ+uu2SVhUW6AkbI0NDSgqip/j4oSEaVjtbpL+rA6s6Iq49/wEcawSxsNkW1ERJkiD+UW8uiceGGx7ehR7HhjJw4faRsVFoV0k34yjAzrBCmrlFnI8yKJiIqexEE5pmjUeEqaiBwjzziUSn6CT56zGMvJkyfx1t630Nk19mlnGUaGlXGcII/dkbLLMjj9KzThzLNBRETOGT4lPXxaWv4Z9ZaWFp6SJqKMkjuN5fpDuSZQTkdHk6OP27Ztx4ULF3SXxEyaNAlLly5x5OYZOS3d19+nH7tTo7vG04ODm57BziuTsPjOFWgML97AMbz48z2ovu0dWDS5Xw23q33k2shQ0Ivpy+7GrdP1Y4YGL+Pwrtewp+0iegPm3/tl41pw69rFmBY7exMRpWT4lLT8c6mnd/MIIxE5xzoqF+/n9uRIYbJhUcg4Th1ltMqe6BHGoN8Pd/A8drxxAtH3Vwf9gxjSTxKS5orGxVixYoWqVq66FXPHe1W/UO8xbHn6F3itfRzmr7ob977nf+Ceu9dg4dVGAs2fJxERURFjYCQixwQCAVX3eWMHxvb2S7opeemMmwwrMFrLkojKaTNQeWwbXj85oLvE5qoch8lTpmCKrhqqZBfdgyOvbMPphqV4552L0TqlHtWVVagZNwUtC+ZjmnlZJRFRVg0HxuE/UtWFMfyTlYgyT136Yoh3s8ul9nbdlLzLl5wJjPLLL8JalrGFEKqYiYXzq3H81Z04k+Slj6HOo9h/phJzFjSjhrtmInJS2D6HRxiJyDHyaBphha5oPWncfdzd48yvsFhh11qWhHgrMPm6pbiurA3bd5+DX3eOFuw8jYMHDuCAUR08eAztA3Lp4kV0lU3E5Frurokod7gHIiLHjBW2aqqrdVPyqquqdFN2WQ/tjneUNC7PeFy3dC7cB7Zhz4XRp7NdCKH/4nG0tbWp6sjhM+gKGfMLBBBye+Dh0UUiyiEGRiJyjLrbzhDvl1Iaxo/XTckbP2GCbsouK+xay5IMz8T5uGWeCwe2v4n2qMwcMiJjVfMtWH/nnbhTqrtuQWMF4K2shHegE532lz8SEWUVAyMROUaeYSj8/tgnZSdMSD0wpjNuMvwBs+zWsiTHi0nzl6A18Ba27etAKIHM6ZswA1O953DwSAf4g4RElCtGYDQv3I68fDvRi7mJiBInPwco4gXG6dOnq2cqJkvGkXGdYJXdWpak+abghiUtGDx0DJ3uBBJj+XQsXDgVV954DpvfOo++Ib3PHhpAx4k2nIt+Vg8RURbwCCMROaa8XAfGgD/mdYzy4O3W1hZUVSZ+PaIMK+M48dBuKfNIYIz9aKBoLpd71HMnyq5agCUzh9DRM3ITYqzhTC7UzFqNu2+bjr49z+DHjz+Gxx9/HI89/iP8/NUzGEggcxIRpcvV2NSkf+RFvai6/OMvvRBRNly82K5+Wq+2phbVcW5ykd+HPrD/wJg/D1hXW4fZc2ejqbFRd8munt4edHV1qd+UnjgxsWsmQ8EhBOGBJ/rP81AQgaEgXB6vuqEl7nARgvD39aLfyKyeikpUlnnihEwiotQN/9KLS/3Wi/xFyyOMROSsKn03s4TGeHdLSwBcuGgBWpqbUOYbfepXukk/GcapsChllTKLZI5muuQO51h7WpdbXQdp3f0cd7gIbvgqa1BbV4MqhkUicpCrsbFJPX6WRxiJyAlyh/Tlyx3o7+9HdVU1amtrdZ/Y5LenL12+hP6+fvXXbnlFOcY3jFe/5ewkObIoRxgrKirQ0DAu7rMkiYgKnTrCeEgfYZQnQvAIIxE5TYJWdXWVeo5hb18v+vr6dJ/YJBg2zmzE3LlzMWfOHNXsdFiUMkpZpcxSdoZFIio13OsRkePkKJ1cvyhnNLp7uscMjbkkZZMySlmlzFJ2IqJSw8BIRDlRUyOno2vUtYESyOR0r7o0Jk9IWaRMUjYpo5RVykxEVIoYGIkoJ+S6GLl+UYKYXNco1wjK9YqDg4N6iNyRMkhZpExSNimjlFVdy0NEVIJ0YDT/qh/+2z5//sgnoiImAUyuR6yvr4fP50Nffx8ud1zGlStX1E0xQ8HYd1FngxxFlHl2XOlQZZCySJmkbFJGhkUiKkVWJNR3Scvd0eYpGGmQeksr75ImIufIA7F7e+UmGCMo6sftSEiT0CY3m8iNJup5YBkk+zo5gijBVOZvnRKX+VVWVqhHAMn8iYhKSfhd0saLqjMwElFekeAmN5oMDAw6fnpafu5Pfo1GnrPIoEhEpYqBkYgKSiAQUNXQUFAdCbSOAGaK7ATlyKXHI5XXCIle3YeIqHQxMBIRERGRrViBMewu6cz+5U5ERERExSDEx+oQERERkT0GRiIiIiKyxcBIRERERLYYGImIiIjIFgMjEREREdliYCQiIiIiWwyMRERERGSLgZGIiIiIbDEwEhEREZEtBkYiIiIiiuTSdSXipwGJiIiIiEZjYCQiIiIiWwyMRERERGSLgZGIiIiIbEUFxpCuExEREVHJioqEPMJIRERERLYYGImIiIjIFgMjEREREdmKCoz6KY0RD2skIiIiotIV4hFGIiIiIrLHwEhEREREthgYiYiIiMgWAyMRERER2WJgJCIiIqJIUTdAMzASERERkS0GRiIiIiKyxcBIRERERLYYGImIiIjIFgMjEREREcVk3vviYmAkIiIiInsMjERERERki4GRiIiIiGwxMBIRERGRLbd5NWPU47yJiIiIiDQeYSQiIiIiWwyMRERERGSLgZGIiIiIbDEwEhEREZGtsMDo4v0vRERERBRBoiGPMBIRERGRLSMwxjqkqI82EhEREVFpkjCoA6ERGEOqQbUzJRIRERGVNDMnRobCyCOMZnZUXQJDQ7hw4YLZgYiIiIiKnmS/QGBIt40YuYbRjJPWCwb6B3Dg4EHVTERERETFT7Jf/0C/btMHFY2aCoy6VbGaBwYHcPDAAd1GRERERMVOst/gwKBqNjOh+WoeYRxOjLrBqHV3dePxx5/AyZMnzW5EREREVLQk80n26+7uDsuGwgW3S3WQl5GwKPx+P86ePYtvffvbZgciIiIiKlqS+ST7SQZUjEyoYyE8DQ0Nf6mbMRIeTXIOu/1iOw4fPoy5c+eirq5O9yEiIiKiYiBHFr/61b/Bxk0b0d7errq5JBQalarJv6bm5lBI7o42XtS/6GZDfX0dpk6divs+8hHMmjULs2fPxqRJk8yeRERERFRQ5G7oAwcO4ODBg3js8cfVkcXOK51mTx0SzcCoQ2NTc4tKhlZA1OnRDIth3X0+L2pralFWXoaK8gp4PG6jjxrUhm1PWymPmfos0+D8TAtrMXNSWseVyKZnKI33MzeMvXIpyMFilsiaNaS4pCXznjg/VwlbzrOZqdFL+sqjcwYG+jEwOKiuWfT7A8NHE82gGN5sVCowGl8AkQFRdVJ1+Wf+D+tuvgzX41H9U5XiqLmYZzpSLm/KZU19IXOwegrrPSk0JbKYNAb55qC41Bem09KYZeqjFs5y5uI9UadnnZbGLG3XkdFL9Y8IhWbdPA1tdQvvb7w2G4FRviAlC44ERpmi1I0G9T+yeVQ9DjWO09KYpd2y2MrJYpZAWdORg1mmIyfriChH1BdQKUhxMdNbOzmZaUpysh2kvHrSKGuezVNNV/0Prxuv4d2k3eou46jA2GIERvmuMl7Ul5b8H9Uc1V/+mR3V/3j0mKlJcdRSmWeq0iprqnIwy3RmWmDFpSzJxWfF3DVTXDlYPenNMsWxC2gzyMk2m8YsUy5vMc1T9TKGMOpquOF6eDezWbVJszQ1t7Qa+0XZNaqasZcc3Wz+H6lHH22MR/V3WhqzTLm8OVnMEihrOnIwy3RmmpPilopCWrlqB138crOYOZhrTmbp8EzTmJ3jZRUpzjKtsuZinnasAGimQ3M+upvVHvPU9EhgNParZko0w6KqGw3qv67r4czhrX42zAmlRM/JWSnOMq2yOryYhVTWdORk+0lHgRU3dSWzoA4z9ualoMAWU38FO8vhWRbaMqZc3gKbp93Iqo/xosplhUGzQ0Q31SbNqtGoq8AoX69qP67rOhhGBEjdzawbTeq/WY9Hj5GaFEdNa56pSmsxHS5vTlZPYb0nqcrJclL25OLtVHtmikd/dRWOHBTX8XVUaMuY4qg52fbM1JYS2zGNnmp55L+ah146CYVmg+oe3k3aXC2trToXml93ZotVN7oN9zMa1P8Y9Xhseo3Fdrp20phnqlIuaxqs98lROZhlqnLxnhTS+smVnLwvJUDv2slODlZRTt6XAtoUzLDirJTfk7SKmtrI2ZqlWgfqf3hdr5mwgKgaVCeznxEYZxnZw9yJJxISzUF1ux4vHjVeqlIcNRfzTEda5U1FWqsnBysoVaXwXqarwIpLWWJ+JxQE/ZVWOHJQXMfXUSkso9DhKRUpj5nGYtquI6OX6q8GMZrC2s26HlvqZoNRNyoJjGY4NOi6FRzN/6r3cL/helj3bLDmkrQ0ipPyPNPh8CwLbRlzUt5UFVBRS0khbUN6N03ZUECrNq3twOHlzMk2m5NZOv+eZG3dGpM1jxrq6UcFRNU2XLf6ufD/Aa48TmVplf/UAAAAAElFTkSuQmCC;" vertex="1" parent="1">
          <mxGeometry x="1325.5" y="210" width="652" height="245" as="geometry" />
        </mxCell>
      </root>
    </mxGraphModel>
  </diagram>
</mxfile>
